<svg enable-background="new 0 0 32 32" height="512" viewBox="0 0 32 32" width="512" xmlns="http://www.w3.org/2000/svg"><path d="m26 32h-20c-3.314 0-6-2.686-6-6v-20c0-3.314 2.686-6 6-6h20c3.314 0 6 2.686 6 6v20c0 3.314-2.686 6-6 6z" fill="#e3f8fa"/><path d="m26 32h-20c-3.314 0-6-2.686-6-6v-20c0-3.314 2.686-6 6-6h20c3.314 0 6 2.686 6 6v20c0 3.314-2.686 6-6 6z" fill="#e3f8fa"/><circle cx="13.8" cy="11.167" fill="#26c6da" r="3.333"/><path d="m15.489 21.7c-.347-.602-.278-1.342.135-1.867-.413-.524-.483-1.265-.135-1.867l.539-.934c.297-.514.85-.833 1.444-.833.081 0 .161.006.241.017.022-.055.05-.106.077-.158-.359-.142-.747-.226-1.156-.226h-5.667c-1.746.001-3.167 1.422-3.167 3.168v2.333c0 .276.224.5.5.5h7.266z" fill="#26c6da"/><path d="m22.269 20.146c.013-.104.032-.206.032-.313s-.018-.209-.032-.313l.6-.454c.134-.101.172-.287.087-.432l-.538-.934c-.084-.146-.263-.206-.418-.14l-.691.292c-.168-.128-.348-.242-.546-.325l-.092-.734c-.021-.167-.163-.292-.331-.292h-1.078c-.168 0-.31.125-.331.292l-.092.734c-.198.083-.378.196-.546.325l-.691-.292c-.155-.065-.334-.005-.418.14l-.539.934c-.084.146-.047.331.087.432l.6.454c-.013.104-.032.206-.032.313s.018.209.032.313l-.6.454c-.134.101-.172.287-.087.432l.539.934c.084.146.263.206.418.14l.691-.292c.168.128.348.242.546.325l.092.734c.021.167.163.292.331.292h1.078c.168 0 .31-.125.331-.292l.092-.734c.198-.083.378-.196.546-.325l.691.292c.155.065.334.005.418-.14l.539-.934c.084-.146.047-.331-.087-.432zm-2.469 1.021c-.736 0-1.333-.597-1.333-1.333s.597-1.333 1.333-1.333 1.333.597 1.333 1.333c.001.736-.596 1.333-1.333 1.333z" fill="#8ce1eb"/></svg>